{
  "accessors": [
    {
      "bufferView": 2,
      "componentType": 5126,
      "count": 57,
      "max": [
        1.555299997329712,
        19.77845573425293,
        2.6325459480285645
      ],
      "min": [
        1.2467050552368164,
        15.432024955749512,
        0.21825100481510162
      ],
      "type": "VEC3"
    },
    {
      "bufferView": 2,
      "byteOffset": 684,
      "componentType": 5126,
      "count": 57,
      "max": [
        0.9986643195152283,
        0.12660329043865204,
        0.05360165983438492
      ],
      "min": [
        0.9905257225036621,
        -0.10829876363277435,
        0.051498159766197205
      ],
      "type": "VEC3"
    },
    {
      "bufferView": 1,
      "componentType": 5126,
      "count": 57,
      "max": [
        0.9715780019760132,
        0.9225999712944031
      ],
      "min": [
        0.026265999302268028,
        0.40846601128578186
      ],
      "type": "VEC2"
    },
    {
      "bufferView": 0,
      "componentType": 5125,
      "count": 216,
      "type": "SCALAR"
    },
    {
      "bufferView": 2,
      "byteOffset": 1368,
      "componentType": 5126,
      "count": 4,
      "max": [
        0.5538129806518555,
        17.617069244384766,
        -0.9957349896430969
      ],
      "min": [
        0.5520899891853333,
        17.53776741027832,
        -1.0101900100708008
      ],
      "type": "VEC3"
    },
    {
      "bufferView": 0,
      "byteOffset": 864,
      "componentType": 5125,
      "count": 4,
      "type": "SCALAR"
    },
    {
      "bufferView": 2,
      "byteOffset": 1416,
      "componentType": 5126,
      "count": 58,
      "max": [
        1.4173489809036255,
        19.771015167236328,
        2.3822250366210938
      ],
      "min": [
        0.7992540001869202,
        15.432769775390625,
        1.0268059968948364
      ],
      "type": "VEC3"
    },
    {
      "bufferView": 2,
      "byteOffset": 2112,
      "componentType": 5126,
      "count": 58,
      "max": [
        -0.7999655604362488,
        0.3742838501930237,
        0.5925744771957397
      ],
      "min": [
        -0.998626172542572,
        -0.525895893573761,
        -0.056398823857307434
      ],
      "type": "VEC3"
    },
    {
      "bufferView": 1,
      "byteOffset": 456,
      "componentType": 5126,
      "count": 58,
      "max": [
        0.6209189891815186,
        0.24764800071716309
      ],
      "min": [
        0.4732010066509247,
        0.0026469998992979527
      ],
      "type": "VEC2"
    },
    {
      "bufferView": 0,
      "byteOffset": 880,
      "componentType": 5125,
      "count": 198,
      "type": "SCALAR"
    },
    {
      "bufferView": 2,
      "byteOffset": 2808,
      "componentType": 5126,
      "count": 54,
      "max": [
        1.6200170516967773,
        19.824451446533203,
        2.3372750282287598
      ],
      "min": [
        0.864238977432251,
        15.38394546508789,
        0.06689400225877762
      ],
      "type": "VEC3"
    },
    {
      "bufferView": 2,
      "byteOffset": 3456,
      "componentType": 5126,
      "count": 54,
      "max": [
        0.9985361695289612,
        0.18599890172481537,
        0.994516134262085
      ],
      "min": [
        -0.03570057824254036,
        -0.9075418710708618,
        -0.9995132088661194
      ],
      "type": "VEC3"
    },
    {
      "bufferView": 1,
      "byteOffset": 920,
      "componentType": 5126,
      "count": 54,
      "max": [
        0.0,
        0.0
      ],
      "min": [
        0.0,
        0.0
      ],
      "type": "VEC2"
    },
    {
      "bufferView": 0,
      "byteOffset": 1672,
      "componentType": 5125,
      "count": 135,
      "type": "SCALAR"
    },
    {
      "bufferView": 2,
      "byteOffset": 4104,
      "componentType": 5126,
      "count": 416,
      "max": [
        1.428562045097351,
        17.728992462158203,
        0.19061000645160675
      ],
      "min": [
        1.416229009628296,
        17.462322235107422,
        0.1171019971370697
      ],
      "type": "VEC3"
    },
    {
      "bufferView": 2,
      "byteOffset": 9096,
      "componentType": 5126,
      "count": 416,
      "max": [
        0.9978475570678711,
        0.9990742802619934,
        0.9977589845657349
      ],
      "min": [
        -0.9978475570678711,
        -0.9999394416809082,
        -0.9978523254394531
      ],
      "type": "VEC3"
    },
    {
      "bufferView": 1,
      "byteOffset": 1352,
      "componentType": 5126,
      "count": 416,
      "max": [
        1.0,
        1.0
      ],
      "min": [
        0.0,
        0.0
      ],
      "type": "VEC2"
    },
    {
      "bufferView": 0,
      "byteOffset": 2212,
      "componentType": 5125,
      "count": 1032,
      "type": "SCALAR"
    },
    {
      "bufferView": 2,
      "byteOffset": 14088,
      "componentType": 5126,
      "count": 1223,
      "max": [
        1.6200170516967773,
        19.825889587402344,
        2.6758670806884766
      ],
      "min": [
        0.04138199985027313,
        15.383735656738281,
        -1.2372909784317017
      ],
      "type": "VEC3"
    },
    {
      "bufferView": 2,
      "byteOffset": 28764,
      "componentType": 5126,
      "count": 1223,
      "max": [
        1.0,
        0.9999743700027466,
        0.9986156225204468
      ],
      "min": [
        -0.998626172542572,
        -0.9999995231628418,
        -0.9985626339912415
      ],
      "type": "VEC3"
    },
    {
      "bufferView": 1,
      "byteOffset": 4680,
      "componentType": 5126,
      "count": 1223,
      "max": [
        1.0,
        1.0
      ],
      "min": [
        0.0,
        0.0
      ],
      "type": "VEC2"
    },
    {
      "bufferView": 0,
      "byteOffset": 6340,
      "componentType": 5125,
      "count": 3576,
      "type": "SCALAR"
    },
    {
      "bufferView": 2,
      "byteOffset": 43440,
      "componentType": 5126,
      "count": 569,
      "max": [
        0.8894469738006592,
        17.853435516357422,
        2.3055419921875
      ],
      "min": [
        0.29724499583244324,
        17.325271606445313,
        -0.9850180149078369
      ],
      "type": "VEC3"
    },
    {
      "bufferView": 2,
      "byteOffset": 50268,
      "componentType": 5126,
      "count": 569,
      "max": [
        1.0,
        1.0,
        1.0
      ],
      "min": [
        -1.0,
        -1.0,
        -1.0
      ],
      "type": "VEC3"
    },
    {
      "bufferView": 1,
      "byteOffset": 14464,
      "componentType": 5126,
      "count": 569,
      "max": [
        1.0,
        1.0
      ],
      "min": [
        0.0,
        0.0
      ],
      "type": "VEC2"
    },
    {
      "bufferView": 0,
      "byteOffset": 20644,
      "componentType": 5125,
      "count": 1485,
      "type": "SCALAR"
    }
  ],
  "asset": {
    "extras": {
      "author": "Astrien (https://sketchfab.com/Astrien)",
      "license": "CC-BY-NC-4.0 (http://creativecommons.org/licenses/by-nc/4.0/)",
      "source": "https://sketchfab.com/3d-models/msi-optix-mag271cr-27-fd0a3a8fcb2d4732b32e5029f330dfe3",
      "title": "MSI Optix MAG271CR 27\""
    },
    "generator": "Sketchfab-12.66.0",
    "version": "2.0"
  },
  "bufferViews": [
    {
      "buffer": 0,
      "byteLength": 26584,
      "name": "floatBufferViews",
      "target": 34963
    },
    {
      "buffer": 0,
      "byteLength": 19016,
      "byteOffset": 26584,
      "byteStride": 8,
      "name": "floatBufferViews",
      "target": 34962
    },
    {
      "buffer": 0,
      "byteLength": 57096,
      "byteOffset": 45600,
      "byteStride": 12,
      "name": "floatBufferViews",
      "target": 34962
    }
  ],
  "buffers": [
    {
      "byteLength": 102696,
      "uri": "scene.bin"
    }
  ],
  "images": [
    {
      "uri": "textures/Material_baseColor.jpeg"
    },
    {
      "uri": "textures/Material.002_baseColor.jpeg"
    },
    {
      "uri": "textures/Material.006_baseColor.jpeg"
    }
  ],
  "materials": [
    {
      "doubleSided": true,
      "emissiveFactor": [
        0.6859195349883564,
        0.6859195349883564,
        0.6859195349883564
      ],
      "emissiveTexture": {
        "index": 0
      },
      "name": "Material",
      "pbrMetallicRoughness": {
        "baseColorTexture": {
          "index": 0
        },
        "metallicFactor": 0.5306851139120442,
        "roughnessFactor": 0.5610859797287027
      }
    },
    {
      "doubleSided": true,
      "name": "Material.001",
      "pbrMetallicRoughness": {
        "baseColorFactor": [
          0.03968,
          0.03968,
          0.03968,
          1.0
        ],
        "metallicFactor": 0.0
      }
    },
    {
      "doubleSided": true,
      "name": "Material.002",
      "pbrMetallicRoughness": {
        "baseColorTexture": {
          "index": 1
        },
        "metallicFactor": 0.0,
        "roughnessFactor": 0.7763932023
      }
    },
    {
      "doubleSided": true,
      "name": "Material.004",
      "pbrMetallicRoughness": {
        "baseColorFactor": [
          0.010023,
          0.010023,
          0.010023,
          1.0
        ],
        "metallicFactor": 0.0,
        "roughnessFactor": 0.9100538348
      }
    },
    {
      "doubleSided": true,
      "name": "Material.006",
      "pbrMetallicRoughness": {
        "baseColorFactor": [
          0.056431607172172264,
          0.056431607172172264,
          0.056431607172172264,
          1.0
        ],
        "baseColorTexture": {
          "index": 2
        },
        "metallicFactor": 0.0,
        "roughnessFactor": 0.8063508327
      }
    },
    {
      "doubleSided": true,
      "name": "None",
      "pbrMetallicRoughness": {
        "baseColorFactor": [
          0.8,
          0.8,
          0.8,
          1.0
        ],
        "metallicFactor": 0.0,
        "roughnessFactor": 0.6217033564000001
      }
    }
  ],
  "meshes": [
    {
      "name": "Object_0",
      "primitives": [
        {
          "attributes": {
            "NORMAL": 1,
            "POSITION": 0,
            "TEXCOORD_0": 2
          },
          "indices": 3,
          "material": 0,
          "mode": 4
        }
      ]
    },
    {
      "name": "Object_1",
      "primitives": [
        {
          "attributes": {
            "POSITION": 4
          },
          "indices": 5,
          "material": 1,
          "mode": 1
        }
      ]
    },
    {
      "name": "Object_2",
      "primitives": [
        {
          "attributes": {
            "NORMAL": 7,
            "POSITION": 6,
            "TEXCOORD_0": 8
          },
          "indices": 9,
          "material": 3,
          "mode": 4
        }
      ]
    },
    {
      "name": "Object_3",
      "primitives": [
        {
          "attributes": {
            "NORMAL": 11,
            "POSITION": 10,
            "TEXCOORD_0": 12
          },
          "indices": 13,
          "material": 4,
          "mode": 4
        }
      ]
    },
    {
      "name": "Object_4",
      "primitives": [
        {
          "attributes": {
            "NORMAL": 15,
            "POSITION": 14,
            "TEXCOORD_0": 16
          },
          "indices": 17,
          "material": 5,
          "mode": 4
        }
      ]
    },
    {
      "name": "Object_5",
      "primitives": [
        {
          "attributes": {
            "NORMAL": 19,
            "POSITION": 18,
            "TEXCOORD_0": 20
          },
          "indices": 21,
          "material": 1,
          "mode": 4
        }
      ]
    },
    {
      "name": "Object_6",
      "primitives": [
        {
          "attributes": {
            "NORMAL": 23,
            "POSITION": 22,
            "TEXCOORD_0": 24
          },
          "indices": 25,
          "material": 2,
          "mode": 4
        }
      ]
    }
  ],
  "nodes": [
    {
      "children": [
        1
      ],
      "matrix": [
        -3.3306690738754696e-16,
        0.07264167070388772,
        0.9973580837249756,
        0.0,
        0.9999862909317017,
        0.005226917564868927,
        -0.000380697747459634,
        0.0,
        -0.005240763071924448,
        0.997344434261322,
        -0.07264067232608773,
        0.0,
        -16.770057678222656,
        -0.15045264363288471,
        -18.374340057373047,
        1.0
      ],
      "name": "Sketchfab_model"
    },
    {
      "children": [
        2,
        3,
        4,
        5,
        6,
        7,
        8
      ],
      "name": "annen.obj.cleaner.materialmerger.gles"
    },
    {
      "mesh": 0,
      "name": "Object_2"
    },
    {
      "mesh": 1,
      "name": "Object_3"
    },
    {
      "mesh": 2,
      "name": "Object_4"
    },
    {
      "mesh": 3,
      "name": "Object_5"
    },
    {
      "mesh": 4,
      "name": "Object_6"
    },
    {
      "mesh": 5,
      "name": "Object_7"
    },
    {
      "mesh": 6,
      "name": "Object_8"
    }
  ],
  "samplers": [
    {
      "magFilter": 9729,
      "minFilter": 9987,
      "wrapS": 10497,
      "wrapT": 10497
    }
  ],
  "scene": 0,
  "scenes": [
    {
      "name": "Sketchfab_Scene",
      "nodes": [
        0
      ]
    }
  ],
  "textures": [
    {
      "sampler": 0,
      "source": 0
    },
    {
      "sampler": 0,
      "source": 1
    },
    {
      "sampler": 0,
      "source": 2
    }
  ]
}
