<?xml version="1.0" encoding="UTF-8"?>
<svg width="21" height="21" viewBox="0 0 24 24" fill="none" xmlns="http://www.w3.org/2000/svg">
  <!-- TikTok glyph with unified white fill to match footer icons -->
  <path d="M15.5 5.2c.6 1.1 1.7 2 3 2.5v2.1c-1.3-.3-2.5-.9-3.5-1.8v7.3c0 3.5-2.8 6.3-6.3 6.3S2.4 18.8 2.4 15.3 5.2 9 8.7 9c.4 0 .8 0 1.2.1v2.2c-.4-.1-.8-.1-1.2-.1-2.3 0-4.2 1.9-4.2 4.2s1.9 4.2 4.2 4.2 4.2-1.9 4.2-4.2V3h2.6c.2.9.5 1.7 1 2.2Z" fill="white"/>
  <path d="M15.5 5.2c.6 1.1 1.7 2 3 2.5v2.1c-1.3-.3-2.5-.9-3.5-1.8v-2.8Z" fill="white"/>
  <path d="M9.9 11.2v2.2c-.4-.1-.8-.1-1.2-.1-2.3 0-4.2 1.9-4.2 4.2 0 .8.2 1.5.5 2.1-1-1-1.6-2.4-1.6-3.8 0-3.5 2.8-6.3 6.3-6.3.4 0 .8 0 1.2.1Z" fill="white"/>
</svg>